<mxfile host="app.diagrams.net" agent="Mozilla/5.0 (Macintosh; Intel Mac OS X 10_15_7) AppleWebKit/605.1.15 (KHTML, like Gecko) Version/18.3.1 Safari/605.1.15" version="26.2.14">
  <diagram id="C5RBs43oDa-KdzZeNtuy" name="Page-1">
    <mxGraphModel dx="1018" dy="697" grid="1" gridSize="10" guides="1" tooltips="1" connect="1" arrows="1" fold="1" page="1" pageScale="1" pageWidth="827" pageHeight="1169" math="0" shadow="0">
      <root>
        <mxCell id="WIyWlLk6GJQsqaUBKTNV-0" />
        <mxCell id="WIyWlLk6GJQsqaUBKTNV-1" parent="WIyWlLk6GJQsqaUBKTNV-0" />
        <mxCell id="WIyWlLk6GJQsqaUBKTNV-2" value="" style="rounded=0;html=1;jettySize=auto;orthogonalLoop=1;fontSize=11;endArrow=block;endFill=0;endSize=8;strokeWidth=1;shadow=0;labelBackgroundColor=none;edgeStyle=orthogonalEdgeStyle;flowAnimation=1;" parent="WIyWlLk6GJQsqaUBKTNV-1" source="WIyWlLk6GJQsqaUBKTNV-3" target="WIyWlLk6GJQsqaUBKTNV-6" edge="1">
          <mxGeometry relative="1" as="geometry" />
        </mxCell>
        <mxCell id="WIyWlLk6GJQsqaUBKTNV-3" value="Login to Drupal core" style="rounded=1;whiteSpace=wrap;html=1;fontSize=12;glass=0;strokeWidth=1;shadow=0;" parent="WIyWlLk6GJQsqaUBKTNV-1" vertex="1">
          <mxGeometry x="160" y="80" width="120" height="40" as="geometry" />
        </mxCell>
        <mxCell id="WIyWlLk6GJQsqaUBKTNV-4" value="Yes" style="rounded=0;html=1;jettySize=auto;orthogonalLoop=1;fontSize=11;endArrow=block;endFill=0;endSize=8;strokeWidth=1;shadow=0;labelBackgroundColor=none;edgeStyle=orthogonalEdgeStyle;" parent="WIyWlLk6GJQsqaUBKTNV-1" source="WIyWlLk6GJQsqaUBKTNV-6" edge="1">
          <mxGeometry x="-0.871" relative="1" as="geometry">
            <mxPoint as="offset" />
            <mxPoint x="220" y="296" as="targetPoint" />
          </mxGeometry>
        </mxCell>
        <mxCell id="WIyWlLk6GJQsqaUBKTNV-6" value="validate login" style="rhombus;whiteSpace=wrap;html=1;shadow=0;fontFamily=Helvetica;fontSize=12;align=center;strokeWidth=1;spacing=6;spacingTop=-4;" parent="WIyWlLk6GJQsqaUBKTNV-1" vertex="1">
          <mxGeometry x="170" y="170" width="100" height="80" as="geometry" />
        </mxCell>
        <mxCell id="KcNDh-4z6qOllVWGGmcO-51" value="" style="edgeStyle=orthogonalEdgeStyle;rounded=0;orthogonalLoop=1;jettySize=auto;html=1;flowAnimation=1;" edge="1" parent="WIyWlLk6GJQsqaUBKTNV-1" source="KcNDh-4z6qOllVWGGmcO-0" target="WIyWlLk6GJQsqaUBKTNV-6">
          <mxGeometry relative="1" as="geometry" />
        </mxCell>
        <mxCell id="KcNDh-4z6qOllVWGGmcO-0" value="Create content Type Draft&amp;nbsp;" style="rounded=0;whiteSpace=wrap;html=1;" vertex="1" parent="WIyWlLk6GJQsqaUBKTNV-1">
          <mxGeometry x="160" y="300" width="120" height="60" as="geometry" />
        </mxCell>
        <mxCell id="KcNDh-4z6qOllVWGGmcO-1" value="Environment" style="shape=datastore;whiteSpace=wrap;html=1;" vertex="1" parent="WIyWlLk6GJQsqaUBKTNV-1">
          <mxGeometry x="440" width="90" height="70" as="geometry" />
        </mxCell>
        <mxCell id="KcNDh-4z6qOllVWGGmcO-2" value="Application&amp;nbsp;" style="rounded=0;whiteSpace=wrap;html=1;" vertex="1" parent="WIyWlLk6GJQsqaUBKTNV-1">
          <mxGeometry x="440" y="80" width="110" height="20" as="geometry" />
        </mxCell>
        <mxCell id="KcNDh-4z6qOllVWGGmcO-8" style="edgeStyle=orthogonalEdgeStyle;rounded=0;orthogonalLoop=1;jettySize=auto;html=1;flowAnimation=1;" edge="1" parent="WIyWlLk6GJQsqaUBKTNV-1" source="KcNDh-4z6qOllVWGGmcO-3">
          <mxGeometry relative="1" as="geometry">
            <mxPoint x="220" y="580" as="targetPoint" />
          </mxGeometry>
        </mxCell>
        <mxCell id="KcNDh-4z6qOllVWGGmcO-9" style="edgeStyle=orthogonalEdgeStyle;rounded=0;orthogonalLoop=1;jettySize=auto;html=1;exitX=1;exitY=0.5;exitDx=0;exitDy=0;flowAnimation=1;" edge="1" parent="WIyWlLk6GJQsqaUBKTNV-1" source="KcNDh-4z6qOllVWGGmcO-3">
          <mxGeometry relative="1" as="geometry">
            <mxPoint x="320" y="480" as="targetPoint" />
          </mxGeometry>
        </mxCell>
        <mxCell id="KcNDh-4z6qOllVWGGmcO-3" value="validate creation" style="rhombus;whiteSpace=wrap;html=1;shadow=0;fontFamily=Helvetica;fontSize=12;align=center;strokeWidth=1;spacing=6;spacingTop=-4;" vertex="1" parent="WIyWlLk6GJQsqaUBKTNV-1">
          <mxGeometry x="170" y="440" width="100" height="80" as="geometry" />
        </mxCell>
        <mxCell id="KcNDh-4z6qOllVWGGmcO-5" value="" style="endArrow=classic;html=1;rounded=0;exitX=0.5;exitY=1;exitDx=0;exitDy=0;flowAnimation=1;" edge="1" parent="WIyWlLk6GJQsqaUBKTNV-1" source="KcNDh-4z6qOllVWGGmcO-0" target="KcNDh-4z6qOllVWGGmcO-3">
          <mxGeometry width="50" height="50" relative="1" as="geometry">
            <mxPoint x="230" y="370" as="sourcePoint" />
            <mxPoint x="440" y="300" as="targetPoint" />
            <Array as="points">
              <mxPoint x="220" y="360" />
            </Array>
          </mxGeometry>
        </mxCell>
        <mxCell id="KcNDh-4z6qOllVWGGmcO-13" style="edgeStyle=orthogonalEdgeStyle;rounded=0;orthogonalLoop=1;jettySize=auto;html=1;exitX=0;exitY=0;exitDx=80;exitDy=65;exitPerimeter=0;flowAnimation=1;" edge="1" parent="WIyWlLk6GJQsqaUBKTNV-1" source="KcNDh-4z6qOllVWGGmcO-10">
          <mxGeometry relative="1" as="geometry">
            <mxPoint x="500" y="486" as="targetPoint" />
          </mxGeometry>
        </mxCell>
        <mxCell id="KcNDh-4z6qOllVWGGmcO-10" value="Extract Node Id" style="shape=note;whiteSpace=wrap;html=1;backgroundOutline=1;darkOpacity=0.05;" vertex="1" parent="WIyWlLk6GJQsqaUBKTNV-1">
          <mxGeometry x="322" y="421" width="80" height="100" as="geometry" />
        </mxCell>
        <mxCell id="KcNDh-4z6qOllVWGGmcO-15" style="edgeStyle=orthogonalEdgeStyle;rounded=0;orthogonalLoop=1;jettySize=auto;html=1;exitX=1;exitY=0.5;exitDx=0;exitDy=0;" edge="1" parent="WIyWlLk6GJQsqaUBKTNV-1" source="KcNDh-4z6qOllVWGGmcO-14">
          <mxGeometry relative="1" as="geometry">
            <mxPoint x="680" y="490" as="targetPoint" />
          </mxGeometry>
        </mxCell>
        <mxCell id="KcNDh-4z6qOllVWGGmcO-14" value="Validate CMAP API validation&amp;nbsp;" style="rounded=0;whiteSpace=wrap;html=1;" vertex="1" parent="WIyWlLk6GJQsqaUBKTNV-1">
          <mxGeometry x="500" y="460" width="120" height="60" as="geometry" />
        </mxCell>
        <mxCell id="KcNDh-4z6qOllVWGGmcO-54" value="" style="edgeStyle=orthogonalEdgeStyle;rounded=0;orthogonalLoop=1;jettySize=auto;html=1;flowAnimation=1;" edge="1" parent="WIyWlLk6GJQsqaUBKTNV-1" source="KcNDh-4z6qOllVWGGmcO-16" target="KcNDh-4z6qOllVWGGmcO-14">
          <mxGeometry relative="1" as="geometry" />
        </mxCell>
        <mxCell id="KcNDh-4z6qOllVWGGmcO-16" value="Validate response" style="rhombus;whiteSpace=wrap;html=1;" vertex="1" parent="WIyWlLk6GJQsqaUBKTNV-1">
          <mxGeometry x="680" y="450" width="80" height="80" as="geometry" />
        </mxCell>
        <mxCell id="KcNDh-4z6qOllVWGGmcO-18" style="edgeStyle=orthogonalEdgeStyle;rounded=0;orthogonalLoop=1;jettySize=auto;html=1;flowAnimation=1;" edge="1" parent="WIyWlLk6GJQsqaUBKTNV-1" source="KcNDh-4z6qOllVWGGmcO-17">
          <mxGeometry relative="1" as="geometry">
            <mxPoint x="380" y="550" as="targetPoint" />
            <Array as="points">
              <mxPoint x="380" y="608" />
            </Array>
          </mxGeometry>
        </mxCell>
        <mxCell id="KcNDh-4z6qOllVWGGmcO-19" style="edgeStyle=orthogonalEdgeStyle;rounded=0;orthogonalLoop=1;jettySize=auto;html=1;" edge="1" parent="WIyWlLk6GJQsqaUBKTNV-1" source="KcNDh-4z6qOllVWGGmcO-17">
          <mxGeometry relative="1" as="geometry">
            <mxPoint x="230" y="690" as="targetPoint" />
          </mxGeometry>
        </mxCell>
        <mxCell id="KcNDh-4z6qOllVWGGmcO-17" value="Edit content type (expired)" style="rounded=0;whiteSpace=wrap;html=1;" vertex="1" parent="WIyWlLk6GJQsqaUBKTNV-1">
          <mxGeometry x="160" y="585" width="140" height="45" as="geometry" />
        </mxCell>
        <mxCell id="KcNDh-4z6qOllVWGGmcO-46" style="edgeStyle=orthogonalEdgeStyle;rounded=0;orthogonalLoop=1;jettySize=auto;html=1;exitX=1;exitY=0.5;exitDx=0;exitDy=0;flowAnimation=1;" edge="1" parent="WIyWlLk6GJQsqaUBKTNV-1" source="KcNDh-4z6qOllVWGGmcO-20">
          <mxGeometry relative="1" as="geometry">
            <mxPoint x="440" y="560" as="targetPoint" />
          </mxGeometry>
        </mxCell>
        <mxCell id="KcNDh-4z6qOllVWGGmcO-20" value="Add Translation for Chinese , publish" style="rounded=0;whiteSpace=wrap;html=1;" vertex="1" parent="WIyWlLk6GJQsqaUBKTNV-1">
          <mxGeometry x="160" y="690" width="140" height="60" as="geometry" />
        </mxCell>
        <mxCell id="KcNDh-4z6qOllVWGGmcO-21" value="Assets" style="childLayout=tableLayout;recursiveResize=0;strokeColor=#98bf21;fillColor=#A7C942;shadow=1;" vertex="1" parent="WIyWlLk6GJQsqaUBKTNV-1">
          <mxGeometry x="520" y="180" width="250" height="169" as="geometry" />
        </mxCell>
        <mxCell id="KcNDh-4z6qOllVWGGmcO-22" style="shape=tableRow;horizontal=0;startSize=0;swimlaneHead=0;swimlaneBody=0;top=0;left=0;bottom=0;right=0;dropTarget=0;collapsible=0;recursiveResize=0;expand=0;fontStyle=0;strokeColor=inherit;fillColor=#ffffff;" vertex="1" parent="KcNDh-4z6qOllVWGGmcO-21">
          <mxGeometry width="250" height="29" as="geometry" />
        </mxCell>
        <mxCell id="KcNDh-4z6qOllVWGGmcO-23" value="application" style="connectable=0;recursiveResize=0;strokeColor=inherit;fillColor=#A7C942;align=center;fontStyle=1;fontColor=#FFFFFF;html=1;" vertex="1" parent="KcNDh-4z6qOllVWGGmcO-22">
          <mxGeometry width="83" height="29" as="geometry">
            <mxRectangle width="83" height="29" as="alternateBounds" />
          </mxGeometry>
        </mxCell>
        <mxCell id="KcNDh-4z6qOllVWGGmcO-24" value="Test data" style="connectable=0;recursiveResize=0;strokeColor=inherit;fillColor=#A7C942;align=center;fontStyle=1;fontColor=#FFFFFF;html=1;" vertex="1" parent="KcNDh-4z6qOllVWGGmcO-22">
          <mxGeometry x="83" width="84" height="29" as="geometry">
            <mxRectangle width="84" height="29" as="alternateBounds" />
          </mxGeometry>
        </mxCell>
        <mxCell id="KcNDh-4z6qOllVWGGmcO-25" value="Api url" style="connectable=0;recursiveResize=0;strokeColor=inherit;fillColor=#A7C942;align=center;fontStyle=1;fontColor=#FFFFFF;html=1;" vertex="1" parent="KcNDh-4z6qOllVWGGmcO-22">
          <mxGeometry x="167" width="83" height="29" as="geometry">
            <mxRectangle width="83" height="29" as="alternateBounds" />
          </mxGeometry>
        </mxCell>
        <mxCell id="KcNDh-4z6qOllVWGGmcO-26" value="" style="shape=tableRow;horizontal=0;startSize=0;swimlaneHead=0;swimlaneBody=0;top=0;left=0;bottom=0;right=0;dropTarget=0;collapsible=0;recursiveResize=0;expand=0;fontStyle=0;strokeColor=inherit;fillColor=#ffffff;" vertex="1" parent="KcNDh-4z6qOllVWGGmcO-21">
          <mxGeometry y="29" width="250" height="28" as="geometry" />
        </mxCell>
        <mxCell id="KcNDh-4z6qOllVWGGmcO-27" value="abs" style="connectable=0;recursiveResize=0;strokeColor=inherit;fillColor=inherit;align=center;whiteSpace=wrap;html=1;" vertex="1" parent="KcNDh-4z6qOllVWGGmcO-26">
          <mxGeometry width="83" height="28" as="geometry">
            <mxRectangle width="83" height="28" as="alternateBounds" />
          </mxGeometry>
        </mxCell>
        <mxCell id="KcNDh-4z6qOllVWGGmcO-28" value="Url1" style="connectable=0;recursiveResize=0;strokeColor=inherit;fillColor=inherit;align=center;whiteSpace=wrap;html=1;" vertex="1" parent="KcNDh-4z6qOllVWGGmcO-26">
          <mxGeometry x="83" width="84" height="28" as="geometry">
            <mxRectangle width="84" height="28" as="alternateBounds" />
          </mxGeometry>
        </mxCell>
        <mxCell id="KcNDh-4z6qOllVWGGmcO-29" value="aplurl1" style="connectable=0;recursiveResize=0;strokeColor=inherit;fillColor=inherit;align=center;whiteSpace=wrap;html=1;" vertex="1" parent="KcNDh-4z6qOllVWGGmcO-26">
          <mxGeometry x="167" width="83" height="28" as="geometry">
            <mxRectangle width="83" height="28" as="alternateBounds" />
          </mxGeometry>
        </mxCell>
        <mxCell id="KcNDh-4z6qOllVWGGmcO-30" value="" style="shape=tableRow;horizontal=0;startSize=0;swimlaneHead=0;swimlaneBody=0;top=0;left=0;bottom=0;right=0;dropTarget=0;collapsible=0;recursiveResize=0;expand=0;fontStyle=1;strokeColor=inherit;fillColor=#EAF2D3;" vertex="1" parent="KcNDh-4z6qOllVWGGmcO-21">
          <mxGeometry y="57" width="250" height="27" as="geometry" />
        </mxCell>
        <mxCell id="KcNDh-4z6qOllVWGGmcO-31" value="sf" style="connectable=0;recursiveResize=0;strokeColor=inherit;fillColor=inherit;whiteSpace=wrap;html=1;" vertex="1" parent="KcNDh-4z6qOllVWGGmcO-30">
          <mxGeometry width="83" height="27" as="geometry">
            <mxRectangle width="83" height="27" as="alternateBounds" />
          </mxGeometry>
        </mxCell>
        <mxCell id="KcNDh-4z6qOllVWGGmcO-32" value="url2" style="connectable=0;recursiveResize=0;strokeColor=inherit;fillColor=inherit;whiteSpace=wrap;html=1;" vertex="1" parent="KcNDh-4z6qOllVWGGmcO-30">
          <mxGeometry x="83" width="84" height="27" as="geometry">
            <mxRectangle width="84" height="27" as="alternateBounds" />
          </mxGeometry>
        </mxCell>
        <mxCell id="KcNDh-4z6qOllVWGGmcO-33" value="api url2" style="connectable=0;recursiveResize=0;strokeColor=inherit;fillColor=inherit;whiteSpace=wrap;html=1;" vertex="1" parent="KcNDh-4z6qOllVWGGmcO-30">
          <mxGeometry x="167" width="83" height="27" as="geometry">
            <mxRectangle width="83" height="27" as="alternateBounds" />
          </mxGeometry>
        </mxCell>
        <mxCell id="KcNDh-4z6qOllVWGGmcO-34" value="" style="shape=tableRow;horizontal=0;startSize=0;swimlaneHead=0;swimlaneBody=0;top=0;left=0;bottom=0;right=0;dropTarget=0;collapsible=0;recursiveResize=0;expand=0;fontStyle=0;strokeColor=inherit;fillColor=#ffffff;" vertex="1" parent="KcNDh-4z6qOllVWGGmcO-21">
          <mxGeometry y="84" width="250" height="29" as="geometry" />
        </mxCell>
        <mxCell id="KcNDh-4z6qOllVWGGmcO-35" value="welcome" style="connectable=0;recursiveResize=0;strokeColor=inherit;fillColor=inherit;fontStyle=0;align=center;whiteSpace=wrap;html=1;" vertex="1" parent="KcNDh-4z6qOllVWGGmcO-34">
          <mxGeometry width="83" height="29" as="geometry">
            <mxRectangle width="83" height="29" as="alternateBounds" />
          </mxGeometry>
        </mxCell>
        <mxCell id="KcNDh-4z6qOllVWGGmcO-36" value="url 3" style="connectable=0;recursiveResize=0;strokeColor=inherit;fillColor=inherit;fontStyle=0;align=center;whiteSpace=wrap;html=1;" vertex="1" parent="KcNDh-4z6qOllVWGGmcO-34">
          <mxGeometry x="83" width="84" height="29" as="geometry">
            <mxRectangle width="84" height="29" as="alternateBounds" />
          </mxGeometry>
        </mxCell>
        <mxCell id="KcNDh-4z6qOllVWGGmcO-37" value="api ur3" style="connectable=0;recursiveResize=0;strokeColor=inherit;fillColor=inherit;fontStyle=0;align=center;whiteSpace=wrap;html=1;" vertex="1" parent="KcNDh-4z6qOllVWGGmcO-34">
          <mxGeometry x="167" width="83" height="29" as="geometry">
            <mxRectangle width="83" height="29" as="alternateBounds" />
          </mxGeometry>
        </mxCell>
        <mxCell id="KcNDh-4z6qOllVWGGmcO-42" value="" style="shape=tableRow;horizontal=0;startSize=0;swimlaneHead=0;swimlaneBody=0;top=0;left=0;bottom=0;right=0;dropTarget=0;collapsible=0;recursiveResize=0;expand=0;fontStyle=0;strokeColor=inherit;fillColor=#ffffff;" vertex="1" parent="KcNDh-4z6qOllVWGGmcO-21">
          <mxGeometry y="113" width="250" height="29" as="geometry" />
        </mxCell>
        <mxCell id="KcNDh-4z6qOllVWGGmcO-43" value="welcome" style="connectable=0;recursiveResize=0;strokeColor=inherit;fillColor=inherit;fontStyle=0;align=center;whiteSpace=wrap;html=1;" vertex="1" parent="KcNDh-4z6qOllVWGGmcO-42">
          <mxGeometry width="83" height="29" as="geometry">
            <mxRectangle width="83" height="29" as="alternateBounds" />
          </mxGeometry>
        </mxCell>
        <mxCell id="KcNDh-4z6qOllVWGGmcO-44" value="url4" style="connectable=0;recursiveResize=0;strokeColor=inherit;fillColor=inherit;fontStyle=0;align=center;whiteSpace=wrap;html=1;" vertex="1" parent="KcNDh-4z6qOllVWGGmcO-42">
          <mxGeometry x="83" width="84" height="29" as="geometry">
            <mxRectangle width="84" height="29" as="alternateBounds" />
          </mxGeometry>
        </mxCell>
        <mxCell id="KcNDh-4z6qOllVWGGmcO-45" value="api url4" style="connectable=0;recursiveResize=0;strokeColor=inherit;fillColor=inherit;fontStyle=0;align=center;whiteSpace=wrap;html=1;" vertex="1" parent="KcNDh-4z6qOllVWGGmcO-42">
          <mxGeometry x="167" width="83" height="29" as="geometry">
            <mxRectangle width="83" height="29" as="alternateBounds" />
          </mxGeometry>
        </mxCell>
        <mxCell id="KcNDh-4z6qOllVWGGmcO-38" value="" style="shape=tableRow;horizontal=0;startSize=0;swimlaneHead=0;swimlaneBody=0;top=0;left=0;bottom=0;right=0;dropTarget=0;collapsible=0;recursiveResize=0;expand=0;fontStyle=1;strokeColor=inherit;fillColor=#EAF2D3;" vertex="1" parent="KcNDh-4z6qOllVWGGmcO-21">
          <mxGeometry y="142" width="250" height="27" as="geometry" />
        </mxCell>
        <mxCell id="KcNDh-4z6qOllVWGGmcO-39" value="application 31" style="connectable=0;recursiveResize=0;strokeColor=inherit;fillColor=inherit;whiteSpace=wrap;html=1;" vertex="1" parent="KcNDh-4z6qOllVWGGmcO-38">
          <mxGeometry width="83" height="27" as="geometry">
            <mxRectangle width="83" height="27" as="alternateBounds" />
          </mxGeometry>
        </mxCell>
        <mxCell id="KcNDh-4z6qOllVWGGmcO-40" value="url 31" style="connectable=0;recursiveResize=0;strokeColor=inherit;fillColor=inherit;whiteSpace=wrap;html=1;" vertex="1" parent="KcNDh-4z6qOllVWGGmcO-38">
          <mxGeometry x="83" width="84" height="27" as="geometry">
            <mxRectangle width="84" height="27" as="alternateBounds" />
          </mxGeometry>
        </mxCell>
        <mxCell id="KcNDh-4z6qOllVWGGmcO-41" value="apiurl31" style="connectable=0;recursiveResize=0;strokeColor=inherit;fillColor=inherit;whiteSpace=wrap;html=1;" vertex="1" parent="KcNDh-4z6qOllVWGGmcO-38">
          <mxGeometry x="167" width="83" height="27" as="geometry">
            <mxRectangle width="83" height="27" as="alternateBounds" />
          </mxGeometry>
        </mxCell>
        <mxCell id="KcNDh-4z6qOllVWGGmcO-47" value="" style="swimlane;startSize=0;" vertex="1" parent="WIyWlLk6GJQsqaUBKTNV-1">
          <mxGeometry x="300" y="380" width="480" height="169" as="geometry" />
        </mxCell>
        <mxCell id="KcNDh-4z6qOllVWGGmcO-49" style="edgeStyle=orthogonalEdgeStyle;rounded=0;orthogonalLoop=1;jettySize=auto;html=1;exitX=0;exitY=0;exitDx=0;exitDy=0;entryX=1;entryY=1;entryDx=0;entryDy=0;flowAnimation=1;" edge="1" parent="WIyWlLk6GJQsqaUBKTNV-1" source="KcNDh-4z6qOllVWGGmcO-34" target="WIyWlLk6GJQsqaUBKTNV-3">
          <mxGeometry relative="1" as="geometry" />
        </mxCell>
        <mxCell id="KcNDh-4z6qOllVWGGmcO-50" style="edgeStyle=orthogonalEdgeStyle;rounded=0;orthogonalLoop=1;jettySize=auto;html=1;exitX=0.832;exitY=1.037;exitDx=0;exitDy=0;exitPerimeter=0;flowAnimation=1;" edge="1" parent="WIyWlLk6GJQsqaUBKTNV-1" source="KcNDh-4z6qOllVWGGmcO-38" target="KcNDh-4z6qOllVWGGmcO-47">
          <mxGeometry relative="1" as="geometry">
            <Array as="points">
              <mxPoint x="730" y="350" />
              <mxPoint x="730" y="369" />
              <mxPoint x="560" y="369" />
            </Array>
          </mxGeometry>
        </mxCell>
        <mxCell id="KcNDh-4z6qOllVWGGmcO-48" style="edgeStyle=orthogonalEdgeStyle;rounded=0;orthogonalLoop=1;jettySize=auto;html=1;exitX=0.116;exitY=-0.103;exitDx=0;exitDy=0;entryX=0.5;entryY=1;entryDx=0;entryDy=0;exitPerimeter=0;movable=1;resizable=1;rotatable=1;deletable=1;editable=1;locked=0;connectable=1;flowAnimation=1;" edge="1" parent="WIyWlLk6GJQsqaUBKTNV-1" source="KcNDh-4z6qOllVWGGmcO-22" target="KcNDh-4z6qOllVWGGmcO-2">
          <mxGeometry relative="1" as="geometry" />
        </mxCell>
      </root>
    </mxGraphModel>
  </diagram>
</mxfile>
